<?xml version="1.0" standalone="no"?>
<!DOCTYPE svg PUBLIC "-//W3C//DTD SVG 20010904//EN"
 "http://www.w3.org/TR/2001/REC-SVG-20010904/DTD/svg10.dtd">
<svg version="1.0" xmlns="http://www.w3.org/2000/svg"
 width="310.000000pt" height="310.000000pt" viewBox="0 0 310.000000 310.000000"
 preserveAspectRatio="xMidYMid meet">
<metadata>
Created by potrace 1.11, written by Peter Selinger 2001-2013
</metadata>
<g transform="translate(0.000000,310.000000) scale(0.100000,-0.100000)"
fill="#000000" stroke="none">
<path d="M1196 2626 c-21 -8 -51 -27 -68 -43 -30 -28 -148 -218 -148 -237 0
-6 78 -33 173 -60 94 -27 192 -55 217 -63 25 -7 117 -34 205 -59 147 -42 542
-155 660 -189 28 -7 81 -23 119 -35 38 -11 71 -18 74 -15 3 3 7 64 9 137 4
125 3 134 -23 185 -41 84 -63 95 -369 180 -49 14 -126 35 -170 48 -79 23 -277
80 -385 111 -30 9 -75 22 -100 30 -69 22 -149 26 -194 10z"/>
<path d="M897 2180 c-47 -133 -57 -313 -23 -453 33 -138 122 -293 222 -388 48
-45 142 -113 166 -121 9 -3 -2 -55 -41 -194 -29 -104 -54 -190 -55 -191 -1 -1
-39 9 -86 23 -98 28 -143 30 -187 6 -98 -53 -111 -199 -24 -261 21 -16 124
-51 190 -66 9 -2 63 -18 121 -35 58 -17 112 -33 120 -35 8 -2 71 -20 140 -40
142 -42 181 -42 235 0 66 50 81 136 36 208 -24 40 -67 63 -165 89 -38 10 -71
20 -73 22 -4 3 95 366 102 374 1 1 36 3 76 4 315 5 607 207 723 502 27 68 32
83 43 142 l5 31 -98 27 c-55 16 -110 32 -124 37 -14 4 -216 63 -450 129 -234
67 -438 125 -455 131 -16 5 -104 30 -195 55 -91 26 -170 48 -175 51 -6 2 -18
-20 -28 -47z"/>
</g>
</svg>
