<?xml version="1.0" standalone="no"?>
<!DOCTYPE svg PUBLIC "-//W3C//DTD SVG 20010904//EN"
 "http://www.w3.org/TR/2001/REC-SVG-20010904/DTD/svg10.dtd">
<svg version="1.0" xmlns="http://www.w3.org/2000/svg"
 width="310.000000pt" height="310.000000pt" viewBox="0 0 310.000000 310.000000"
 preserveAspectRatio="xMidYMid meet">
<metadata>
Created by potrace 1.11, written by Peter Selinger 2001-2013
</metadata>
<g transform="translate(0.000000,310.000000) scale(0.100000,-0.100000)"
fill="#000000" stroke="none">
<path d="M1172 2619 c-24 -12 -54 -36 -67 -53 -31 -41 -138 -226 -134 -230 7
-6 1443 -416 1457 -416 19 0 17 269 -4 318 -18 44 -67 97 -103 111 -14 6 -246
74 -515 151 -528 151 -558 157 -634 119z"/>
<path d="M897 2192 c-65 -162 -61 -403 10 -580 55 -137 188 -296 311 -372 37
-23 51 -37 48 -49 -3 -9 -26 -90 -52 -181 -25 -91 -48 -167 -50 -169 -2 -2
-39 6 -83 17 -103 29 -159 28 -201 -1 -92 -62 -97 -194 -9 -259 32 -24 667
-208 718 -208 45 0 96 31 128 79 45 67 22 167 -48 210 -17 10 -67 29 -112 41
-45 13 -83 24 -84 24 -1 1 22 85 51 186 l53 185 99 6 c223 14 393 94 544 256
99 105 161 223 194 361 13 56 13 62 -2 66 -140 41 -1454 416 -1473 421 -23 6
-28 2 -42 -33z"/>
</g>
</svg>
