<?xml version="1.0" standalone="no"?>
<!DOCTYPE svg PUBLIC "-//W3C//DTD SVG 20010904//EN"
 "http://www.w3.org/TR/2001/REC-SVG-20010904/DTD/svg10.dtd">
<svg version="1.0" xmlns="http://www.w3.org/2000/svg"
 width="700.000000pt" height="700.000000pt" viewBox="0 0 700.000000 700.000000"
 preserveAspectRatio="xMidYMid meet">
<metadata>
Created by potrace 1.11, written by Peter Selinger 2001-2013
</metadata>
<g transform="translate(0.000000,700.000000) scale(0.100000,-0.100000)"
fill="#000000" stroke="none">
<path d="M3920 6323 c0 -7 74 -333 165 -726 131 -566 165 -728 165 -784 0
-184 -68 -357 -187 -477 -77 -78 -154 -131 -344 -237 -109 -61 -134 -80 -146
-107 -11 -27 -11 -38 -1 -59 15 -29 1802 -1736 1806 -1725 1 4 -72 327 -163
717 -175 751 -178 770 -155 912 25 151 83 271 177 368 66 67 126 108 318 215
165 91 195 113 195 145 0 11 -10 35 -22 52 -13 17 -392 379 -843 803 -451 425
-853 804 -892 844 -40 39 -73 65 -73 59z"/>
<path d="M2350 5935 c-110 -30 -220 -93 -295 -169 -59 -59 -95 -112 -215 -316
-204 -348 -262 -480 -314 -711 -88 -396 -49 -776 117 -1145 93 -206 200 -358
371 -529 128 -128 192 -178 333 -262 49 -29 93 -56 100 -60 17 -11 -235 -893
-255 -893 -8 0 -100 25 -206 56 -231 69 -311 77 -399 44 -70 -26 -143 -95
-177 -165 -19 -39 -24 -67 -24 -130 -1 -71 3 -88 32 -147 35 -71 79 -115 147
-147 22 -10 373 -115 780 -232 681 -196 746 -213 820 -214 68 0 89 4 137 28
193 95 243 346 100 508 -46 53 -117 83 -346 149 -115 33 -210 61 -211 62 -1 2
55 201 124 443 l127 440 194 6 c219 7 342 27 519 85 102 33 363 155 408 191
22 18 20 19 -414 428 -239 226 -454 435 -477 465 -134 174 -158 309 -81 466
56 114 113 164 330 289 265 154 324 219 332 369 3 61 -8 120 -79 425 l-83 355
-550 159 -550 159 -120 4 c-86 3 -135 0 -175 -11z"/>
</g>
</svg>
