<?xml version="1.0" encoding="UTF-8" standalone="no"?>
<svg width="256px" height="182px" viewBox="0 0 256 182" version="1.1" xmlns="http://www.w3.org/2000/svg" xmlns:xlink="http://www.w3.org/1999/xlink">
    <!-- Generator: Sketch 39.1 (31720) - http://www.bohemiancoding.com/sketch -->
    <title>icone</title>
    <desc>Created with Sketch.</desc>
    <defs>
        <path d="M135.541747,78.715723 C146.251436,70.8390132 153.205839,57.8271464 153.205839,43.5192303 C153.205839,19.618215 133.817167,0.0747271609 109.89972,0.0747271609 C85.9822726,0.0747271609 66.5936006,19.368346 66.5936006,43.2693612 C66.5936006,57.5772774 73.5480042,70.8810473 84.2576926,78.7577571 C59.7560382,88.6871286 42.5032277,113.737074 42.5032277,141.759759 C42.5032277,179.12334 177.298549,179.12334 177.298549,141.759759 C177.296212,113.739409 160.041065,88.6450947 135.541747,78.715723 L135.541747,78.715723 L135.541747,78.715723 Z" id="path-1"></path>
        <mask id="mask-2" maskContentUnits="userSpaceOnUse" maskUnits="objectBoundingBox" x="-6" y="-6" width="146.795321" height="181.707718">
            <rect x="36.5032277" y="-5.92527284" width="146.795321" height="181.707718" fill="white"></rect>
            <use xlink:href="#path-1" fill="black"></use>
        </mask>
        <path d="M187.749664,81.7969316 C195.624779,76.0079118 200.735424,66.5759431 200.735424,56.05576 C200.735424,38.4832012 186.480766,24.1846259 168.896126,24.1846259 C164.946884,24.1846259 161.168231,24.9085453 157.679345,26.2186058 C160.175079,32.1080401 161.558482,38.5789453 161.558482,45.3697759 C161.558482,57.8959163 156.765645,69.9083075 148.423165,78.9386178 C171.298386,91.7192975 185.651191,116.045324 185.651191,143.166612 C185.651191,144.236145 185.564729,145.366393 185.368435,146.534005 C203.584019,144.245486 218.450927,138.026785 218.450927,127.875567 C218.450927,106.034219 205.764281,89.0991763 187.749664,81.7969316 L187.749664,81.7969316 L187.749664,81.7969316 Z" id="path-3"></path>
        <mask id="mask-4" maskContentUnits="userSpaceOnUse" maskUnits="objectBoundingBox" x="-6" y="-6" width="82.0277619" height="134.349379">
            <rect x="142.423165" y="18.1846259" width="82.0277619" height="134.349379" fill="white"></rect>
            <use xlink:href="#path-3" fill="black"></use>
        </mask>
        <path d="M35.1459117,142.166612 C35.1459117,115.542726 48.9962987,91.6183587 71.163461,78.6648724 C71.5023011,78.3542876 71.8317942,78.0320266 72.1566133,77.709766 C63.949669,68.6887965 59.2362846,56.7301155 59.2362846,44.2343329 C59.2362846,37.7891155 60.5005091,31.6358006 62.774244,25.9915649 C58.7899501,24.1934426 54.3756797,23.1846259 49.7230526,23.1846259 C32.1384126,23.1846259 17.8837542,37.4038034 17.8837542,54.9763623 C17.8837542,65.4988807 22.9967366,75.0219232 30.8695143,80.8109429 C12.8572345,88.1131877 0.170588535,105.034219 0.170588535,126.875567 C0.170588535,137.435449 16.2596579,143.740553 35.4707311,145.79088 C35.2440585,144.532194 35.1459117,143.317878 35.1459117,142.166612 L35.1459117,142.166612 L35.1459117,142.166612 Z" id="path-5"></path>
        <mask id="mask-6" maskContentUnits="userSpaceOnUse" maskUnits="objectBoundingBox" x="-6" y="-6" width="83.9860248" height="134.606254">
            <rect x="-5.82941147" y="17.1846259" width="83.9860248" height="134.606254" fill="white"></rect>
            <use xlink:href="#path-5" fill="black"></use>
        </mask>
        <path d="M239.412,112.333333 L224.666667,112.333333 L224.666667,97.588 C224.666667,93.9653333 221.624,91 218,91 C214.376,91 211.333333,93.9653333 211.333333,97.588 L211.333333,112.333333 L196.588,112.333333 C192.965333,112.333333 190,115.376 190,119 C190,122.624 192.965333,125.666667 196.588,125.666667 L211.333333,125.666667 L211.333333,140.412 C211.333333,144.034667 214.376,147 218,147 C221.624,147 224.666667,144.034667 224.666667,140.412 L224.666667,125.666667 L239.412,125.666667 C243.034667,125.666667 246,122.624 246,119 C246,115.376 243.034667,112.333333 239.412,112.333333 L239.412,112.333333 Z" id="path-7"></path>
        <mask id="mask-8" maskContentUnits="userSpaceOnUse" maskUnits="objectBoundingBox" x="-4" y="-4" width="64" height="64">
            <rect x="186" y="87" width="64" height="64" fill="white"></rect>
            <use xlink:href="#path-7" fill="black"></use>
        </mask>
    </defs>
    <g id="Page-1" stroke="none" stroke-width="1" fill="none" fill-rule="evenodd">
        <g id="Web-meefore" transform="translate(-509.000000, -135.000000)">
            <g id="friends-empty">
                <g id="icone" transform="translate(515.000000, 141.000000)">
                    <g id="Group">
                        <g id="Shape">
                            <use fill="#FFFFFF" fill-rule="evenodd" xlink:href="#path-1"></use>
                            <use stroke="#EEEEEE" mask="url(#mask-2)" stroke-width="12" xlink:href="#path-1"></use>
                        </g>
                        <g id="Shape">
                            <use fill="#FFFFFF" fill-rule="evenodd" xlink:href="#path-3"></use>
                            <use stroke="#EEEEEE" mask="url(#mask-4)" stroke-width="12" xlink:href="#path-3"></use>
                        </g>
                        <g id="Shape">
                            <use fill="#FFFFFF" fill-rule="evenodd" xlink:href="#path-5"></use>
                            <use stroke="#EEEEEE" mask="url(#mask-6)" stroke-width="12" xlink:href="#path-5"></use>
                        </g>
                    </g>
                    <g id="Shape">
                        <use fill="#FDCDD5" fill-rule="evenodd" xlink:href="#path-7"></use>
                        <use stroke="#F63C5D" mask="url(#mask-8)" stroke-width="8" xlink:href="#path-7"></use>
                    </g>
                </g>
            </g>
        </g>
    </g>
</svg>