<?xml version="1.0" encoding="UTF-8" standalone="no"?>
<svg width="150px" height="136px" viewBox="0 0 150 136" version="1.1" xmlns="http://www.w3.org/2000/svg" xmlns:xlink="http://www.w3.org/1999/xlink">
    <!-- Generator: Sketch 39.1 (31720) - http://www.bohemiancoding.com/sketch -->
    <title>icone-3</title>
    <desc>Created with Sketch.</desc>
    <defs>
        <path d="M3.63363505,17.8728214 L14.0138196,17.8728214 L11.5316016,19.9055828 L3.63363505,26.6814542 L1.3770732,28.7142157 C0.248792271,29.6176652 0.0231360849,31.1987019 0.474448456,32.5538762 C0.925760827,33.9090505 2.27969794,34.8125 3.63363505,34.8125 L17.6243186,34.8125 L23.040067,34.8125 C24.1683479,34.8125 25.2966289,34.1349129 25.9735974,33.2314633 C26.1992536,32.7797386 26.4249098,32.1021514 26.4249098,31.4245643 C26.4249098,29.6176652 24.8453165,28.0366285 23.040067,28.0366285 L22.8144108,28.0366285 L12.6598825,28.0366285 L18.0756309,23.5193809 L25.2966289,17.1952342 C26.4249098,16.2917847 26.650566,14.710748 26.1992536,13.3555737 C25.7479412,12.0003994 24.3940041,11.0969499 23.040067,11.0969499 L3.63363505,11.0969499 C1.82838557,11.0969499 0.248792271,12.6779866 0.248792271,14.4848856 C0.248792271,16.2917847 1.60272938,17.8728214 3.63363505,17.8728214 L3.63363505,17.8728214 Z" id="path-1"></path>
        <mask id="mask-2" maskContentUnits="userSpaceOnUse" maskUnits="objectBoundingBox" x="-2" y="-2" width="30.1761175" height="27.7155501">
            <rect x="-1.75120773" y="9.09694989" width="30.1761175" height="27.7155501" fill="white"></rect>
            <use xlink:href="#path-1" fill="black"></use>
        </mask>
    </defs>
    <g id="Page-1" stroke="none" stroke-width="1" fill="none" fill-rule="evenodd">
        <g id="Web-meefore" transform="translate(-563.000000, -174.000000)">
            <g id="map-closed" transform="translate(0.000000, 44.000000)">
                <g id="V3" transform="translate(0.000000, 2.000000)">
                    <g id="center_part" transform="translate(0.000000, 129.000000)">
                        <g id="icone-3" transform="translate(563.000000, 0.000000)">
                            <g id="man-copy" transform="translate(0.000000, 40.000000)" fill="#EEEEEE">
                                <g id="Group">
                                    <path d="M55.0209205,48.0786268 C54.0794979,47.6578073 52.9288703,48.0786268 52.5104603,49.0254707 C51.7782427,50.6035437 50.209205,51.6555925 48.4309623,51.6555925 C46.6527197,51.6555925 45.083682,50.6035437 44.3514644,49.0254707 C43.9330544,48.0786268 42.7824268,47.6578073 41.8410042,48.0786268 C40.8995816,48.4994463 40.4811715,49.6566999 40.8995816,50.6035437 C42.1548117,53.654485 45.083682,55.5481728 48.4309623,55.5481728 C51.6736402,55.5481728 54.6025105,53.654485 55.9623431,50.6035437 C56.4853556,49.551495 55.9623431,48.4994463 55.0209205,48.0786268 L55.0209205,48.0786268 Z" id="Shape"></path>
                                    <path d="M32.9497908,50.6035437 C33.4728033,49.6566999 33.0543933,48.4994463 32.1129707,48.0786268 C31.1715481,47.5526024 30.0209205,47.9734219 29.6025105,48.9202658 C28.8702929,50.393134 27.3012552,51.3399779 25.7322176,51.3399779 C24.1631799,51.3399779 22.5941423,50.393134 21.8619247,48.9202658 C21.3389121,47.9734219 20.292887,47.6578073 19.3514644,48.0786268 C18.4100418,48.6046512 18.0962343,49.6566999 18.5146444,50.6035437 C19.874477,53.3388704 22.6987448,55.1273533 25.7322176,55.1273533 C28.7656904,55.1273533 31.4853556,53.4440753 32.9497908,50.6035437 L32.9497908,50.6035437 Z" id="Shape"></path>
                                    <ellipse id="Oval" cx="33.6820084" cy="74.9058693" rx="4.70711297" ry="4.73421927"></ellipse>
                                    <path d="M74.2677824,55.1273533 C73.8493724,48.0786268 74.0585774,39.662237 74.2677824,35.3488372 C74.3723849,34.4019934 74.3723849,33.4551495 74.3723849,32.7187154 C74.3723849,30.7198228 74.1631799,28.8261351 73.8493724,26.9324474 C73.7447699,26.6168328 73.7447699,26.1960133 73.6401674,25.8803987 C73.4309623,25.3543743 72.9079498,24.9335548 72.3849372,24.8283499 C71.3389121,24.6179402 70.292887,25.2491694 69.9790795,26.3012182 L69.9790795,26.6168328 C70.083682,26.9324474 70.083682,27.3532669 70.1882845,27.6688815 C70.5020921,29.3521595 70.6066946,31.0354374 70.6066946,32.7187154 C70.6066946,33.4551495 70.6066946,34.1915836 70.5020921,35.1384275 C70.3974895,38.1893688 70.292887,43.1339978 70.292887,48.3942414 C69.3514644,47.6578073 68.4100418,47.1317829 67.2594142,46.8161683 L67.2594142,36.6112957 C67.2594142,32.8239203 64.1213389,29.6677741 60.3556485,29.6677741 C59.9372385,29.6677741 59.4142259,29.6677741 58.9958159,29.772979 C44.5606695,32.9291251 29.707113,32.9291251 15.376569,29.772979 C14.958159,29.6677741 14.4351464,29.6677741 14.0167364,29.6677741 C10.251046,29.6677741 7.11297071,32.8239203 7.11297071,36.6112957 L7.11297071,47.1317829 C6.17154812,47.4473976 5.23012552,47.8682171 4.39330544,48.3942414 C4.39330544,38.820598 3.76569038,25.8803987 3.76569038,25.2491694 C3.76569038,18.3056478 9.41422594,12.6245847 16.3179916,12.6245847 C17.4686192,12.6245847 18.5146444,12.8349945 19.665272,13.0454042 L20.7112971,13.3610188 L21.4435146,12.5193798 C26.8828452,7.04872647 34.2050209,3.89258029 42.0502092,3.89258029 C47.4895397,3.89258029 52.6150628,5.47065338 57.0083682,8.10077519 C57.3221757,8.31118494 57.6359833,8.52159468 57.9497908,8.73200443 C59.1004184,8.94241417 60.1464435,8.31118494 60.460251,7.25913621 C60.6694561,6.62790698 60.460251,5.99667774 60.041841,5.47065338 C59.7280335,5.26024363 59.4142259,5.04983389 59.1004184,4.83942414 C54.0794979,1.89368771 48.2217573,0.105204873 42.0502092,0.105204873 C33.5774059,0.105204873 25.6276151,3.36655592 19.5606695,9.25802879 C18.5146444,9.04761905 17.3640167,8.94241417 16.3179916,8.94241417 C7.32217573,8.94241417 1.13686838e-13,16.3067553 1.13686838e-13,25.4595792 C1.13686838e-13,25.6699889 0.941422594,45.3433001 0.523012552,53.9700997 C0.313807531,54.8117386 0.209205021,55.6533776 0.209205021,56.6002215 C0.209205021,61.0188261 3.13807531,64.8062016 7.21757322,65.9634551 C8.05439331,81.9545958 21.2343096,94.6843854 37.3430962,94.6843854 C53.5564854,94.6843854 66.7364017,81.744186 67.4686192,65.6478405 C71.6527197,64.4905869 74.58159,60.7032115 74.58159,56.179402 L74.3723849,55.8637874 C74.3723849,55.5481728 74.3723849,55.337763 74.2677824,55.1273533 Z M7.0083682,61.6500554 L7.0083682,61.6500554 C5.12552301,60.7032115 3.87029289,58.7043189 3.87029289,56.4950166 C3.87029289,55.8637874 3.9748954,55.2325581 4.18410042,54.6013289 C4.70711297,53.1284607 5.64853556,51.9712071 7.0083682,51.234773 L7.0083682,61.6500554 L7.0083682,61.6500554 Z M63.4937238,46.3953488 L63.4937238,48.2890365 L63.4937238,50.1827243 L63.4937238,62.0708749 L63.4937238,62.0708749 L63.4937238,63.9645626 L63.4937238,63.9645626 L63.4937238,64.2801772 C63.4937238,64.8062016 63.4937238,65.3322259 63.3891213,65.8582503 L63.3891213,65.8582503 C62.5523013,79.7452935 51.1506276,90.7918051 37.1338912,90.7918051 C23.3263598,90.7918051 11.9246862,79.9557032 10.8786611,66.2790698 L10.8786611,66.2790698 C10.8786611,65.6478405 10.7740586,65.0166113 10.7740586,64.3853821 L10.7740586,64.3853821 L10.7740586,64.3853821 L10.7740586,62.4916944 L10.7740586,62.4916944 L10.7740586,50.7087486 L10.7740586,48.8150609 L10.7740586,46.9213732 L10.7740586,36.7165006 C10.7740586,34.9280177 12.1338912,33.5603544 13.9121339,33.5603544 C14.1213389,33.5603544 14.3305439,33.5603544 14.539749,33.6655592 C29.3933054,36.9269103 44.874477,36.9269103 59.7280335,33.6655592 L59.832636,33.6655592 C61.7154812,33.3499446 63.4937238,34.8228128 63.4937238,36.8217054 L63.4937238,46.3953488 L63.4937238,46.3953488 Z M67.2594142,61.4396456 L67.2594142,50.9191584 C69.1422594,51.9712071 70.3974895,53.8648948 70.3974895,56.179402 C70.5020921,58.4939092 69.1422594,60.3875969 67.2594142,61.4396456 L67.2594142,61.4396456 Z" id="Shape"></path>
                                </g>
                            </g>
                            <g id="girl" transform="translate(27.000000, 0.000000)">
                                <path d="M32,56 L32,65 C32,65 29,68 29,72 C29,76 32,79 32,79 L32,102 L31,107 L30,112 L28,116 L42,119 L55,88 L50,50 L32,56 Z" id="Path-2" fill="#FFFFFF"></path>
                                <ellipse id="Oval" fill="#EEEEEE" cx="69.9070048" cy="95.7245098" rx="5.59782609" ry="5.60294118"></ellipse>
                                <path d="M121.787474,114.595918 C116.815756,109.085385 116.605373,95.0440431 117.193808,80.5156963 C119.35945,78.4797839 120.716194,75.5912155 120.716194,72.3898383 C120.716194,69.5785427 119.669321,67.0088904 117.948321,65.0452056 C118.671528,50.2268867 119.055151,40.3173815 114.359079,31.1673272 C111.155319,24.9238981 105.97136,19.7073209 98.9515274,15.6625815 C90.7699464,10.9486758 81.4372295,8.63474073 71.9612508,8.97383817 C63.6377344,9.27071439 55.8885921,13.1521452 50.5449232,19.6645686 C43.6450057,20.0753624 37.3682774,23.8338472 33.991276,29.6428492 C33.7013033,30.1415375 33.4208814,30.6542996 33.157704,31.1670616 C28.458979,40.3221613 28.8423372,50.2308698 29.5655445,65.0475955 C27.8456058,67.0110148 26.7997939,69.5796048 26.7997939,72.3898383 C26.7997939,75.5901533 28.155476,78.4779251 30.3200572,80.5138375 C30.9084922,95.0432464 30.6981094,109.085651 25.7263909,114.596183 C25.2562796,115.117177 25.0737533,115.837328 25.2387698,116.519771 C25.4037863,117.202215 25.8951216,117.759057 26.551208,118.007339 C32.147177,120.123711 37.5667216,120.880506 42.4580543,120.880506 C47.5393416,120.880506 52.0504997,120.063167 55.5919869,119.10456 C61.7456161,117.439079 66.0859211,115.101245 67.5668246,114.238498 C69.5823073,114.570957 71.6497888,114.747011 73.7578611,114.747011 C75.8654028,114.747011 77.9323537,114.571222 79.9473058,114.238764 C81.4284747,115.101776 85.7685143,117.439079 91.9216129,119.10456 C96.6458067,120.383145 101.025376,120.883161 104.987363,120.883161 C111.587227,120.883161 117.0272,119.495172 120.962392,118.006808 C121.618744,117.758526 122.109814,117.201949 122.27483,116.51924 C122.440112,115.837062 122.257586,115.117177 121.787474,114.595918 L121.787474,114.595918 Z M111.695735,76.7747372 L111.695735,66.2287273 C111.696265,66.2008454 111.696265,66.1726979 111.695735,66.1445505 L111.695735,65.8213856 C114.463608,66.7197149 116.471131,69.3238876 116.471131,72.3895728 C116.471131,75.4796878 114.432302,78.1021829 111.630206,78.9800655 C111.672123,78.2500899 111.695735,77.5153345 111.695735,76.7747372 L111.695735,76.7747372 Z M36.933451,33.1084409 C37.1629353,32.6615333 37.4072764,32.2143602 37.6601072,31.7796675 C40.4555713,26.9709632 45.8021585,23.9427195 51.6132856,23.8765995 C51.6199181,23.8765995 51.6358361,23.876334 51.6427339,23.8760684 C52.2874124,23.8625258 52.8907042,23.5566211 53.2830826,23.0446557 C57.8634839,17.064379 64.7265248,13.4832764 72.1124717,13.219593 C80.7928163,12.9097052 89.3415722,15.0279356 96.8333737,19.3445902 C103.132918,22.974287 107.758951,27.6050781 110.582802,33.1084409 C114.34157,40.4320958 114.452996,48.3986284 113.836704,62.0870651 C113.154353,61.8032004 112.438043,61.5862524 111.695735,61.442063 L111.695735,59.2818769 C111.695735,58.1087113 110.745431,57.157539 109.573336,57.157539 C108.401242,57.157539 107.450938,58.1087113 107.450938,59.2818769 L107.450938,64.1065138 C78.2151633,64.419057 62.3884376,50.3243407 58.1653951,45.9144808 C57.6684886,45.3956112 56.9431589,45.1635273 56.2385226,45.2970951 C55.5330904,45.4306628 54.9430636,45.9120909 54.6700701,46.5767431 C51.5859597,54.0857464 46.1974552,58.0144438 37.7126365,58.9401241 C36.6357846,59.0574937 35.8202529,59.9677725 35.8202529,61.0519815 L35.8202529,61.4417975 C35.0771482,61.5859869 34.3600428,61.8032004 33.677161,62.0875962 C33.0606043,48.402346 33.1728261,40.4360789 36.933451,33.1084409 L36.933451,33.1084409 Z M35.8855167,78.9803311 C33.08342,78.1024484 31.044591,75.4799533 31.044591,72.3898383 C31.044591,69.3238876 33.0521147,66.7197149 35.8199876,65.8216511 L35.8199876,76.7747372 C35.8199876,77.5153345 35.8435993,78.2500899 35.8855167,78.9803311 L35.8855167,78.9803311 Z M30.7007624,114.930501 C34.4855296,108.464548 35.1418813,97.7156635 34.6606274,83.0481726 C35.2241243,83.2223683 35.8072532,83.3508907 36.4047084,83.4337399 C38.8186714,97.036672 48.4938904,108.15705 61.2619746,112.62825 C55.1210797,115.273051 43.4982949,118.777677 30.7007624,114.930501 L30.7007624,114.930501 Z M73.7578611,110.498336 C55.1794457,110.498336 40.0647847,95.3698634 40.0647847,76.7744717 L40.06505,62.9059974 C48.0248403,61.5950153 53.6919096,57.6729565 57.2843344,50.9807611 C60.3421801,53.7729377 65.2863074,57.6023223 72.2541418,60.9585106 C82.7308314,66.0048752 94.5624073,68.4938026 107.450938,68.3559862 L107.450938,76.7744717 C107.450938,95.3701289 92.3362765,110.498336 73.7578611,110.498336 L73.7578611,110.498336 Z M93.1693179,115.040701 C90.4478725,114.312584 88.0997038,113.432843 86.246054,112.630905 C99.0181177,108.16183 108.696785,97.039593 111.111279,83.4337399 C111.708204,83.3508907 112.290537,83.2226338 112.853503,83.0487037 C112.371984,97.7180534 113.02807,108.466938 116.814695,114.932625 C109.319179,117.199028 101.378755,117.237267 93.1693179,115.040701 L93.1693179,115.040701 Z" id="Shape" fill="#EEEEEE"></path>
                                <path d="M49.5094581,70.4789964 C48.6803961,71.3085503 48.6803961,72.6535217 49.5094581,73.4830757 C50.3382547,74.3126296 51.6819982,74.3126296 52.5107949,73.4830757 C53.8712523,72.1219062 56.0843834,72.1216406 57.4448408,73.4830757 C57.8592391,73.8978527 58.4023079,74.1052411 58.9456419,74.1052411 C59.4889759,74.1052411 60.0320446,73.8978527 60.4464429,73.4830757 C61.2755048,72.6535217 61.2755048,71.3085503 60.4464429,70.4789964 C57.4313105,67.4608433 52.5245905,67.4605778 49.5094581,70.4789964 L49.5094581,70.4789964 Z" id="Shape" fill="#EEEEEE" transform="translate(54.977950, 71.160262) scale(1, -1) translate(-54.977950, -71.160262) "></path>
                                <path d="M96.8869642,73.4830757 C97.7160262,72.6535217 97.7160262,71.3085503 96.8869642,70.4789964 C93.8715666,67.4608433 88.9651118,67.4608433 85.9499794,70.4789964 C85.1209175,71.3085503 85.1209175,72.6535217 85.9499794,73.4830757 C86.778776,74.3126296 88.1225196,74.3126296 88.9513162,73.4830757 C90.3117736,72.1216406 92.52517,72.1219062 93.8853621,73.4830757 C94.2997605,73.8978527 94.8428292,74.1052411 95.3861632,74.1052411 C95.9294972,74.1052411 96.4725659,73.8978527 96.8869642,73.4830757 L96.8869642,73.4830757 Z" id="Shape" fill="#EEEEEE" transform="translate(91.418472, 71.160311) scale(1, -1) translate(-91.418472, -71.160311) "></path>
                                <g id="Zz" transform="translate(0.713768, 0.000000)">
                                    <path d="M34.8097526,9.38486747 L31.650566,9.38486747 L36.6150021,5.09348221 C37.2919706,4.19003268 37.743283,3.06072077 37.2919706,1.93140886 C36.8406583,0.80209695 35.9380335,0.124509804 34.8097526,0.124509804 L24.2039119,0.124509804 C22.6243186,0.124509804 21.4960376,1.25382171 21.4960376,2.83485839 C21.4960376,4.41589506 22.6243186,5.54520697 24.2039119,5.54520697 L27.3630985,5.54520697 L22.3986624,9.83659223 C21.4960376,10.5141794 21.2703814,11.8693537 21.7216938,12.7728032 L21.7216938,12.7728032 C22.1730062,13.6762527 23.0756309,14.3538399 24.2039119,14.3538399 L33.4558155,14.3538399 L34.8097526,14.3538399 C36.3893459,14.3538399 37.5176268,13.224528 37.5176268,11.6434913 C37.5176268,10.5141794 36.1636897,9.38486747 34.8097526,9.38486747 L34.8097526,9.38486747 Z" id="Shape" stroke="#F63C5D" stroke-width="2" fill="#FDCDD5"></path>
                                    <g id="Shape">
                                        <use fill="#FDCDD5" fill-rule="evenodd" xlink:href="#path-1"></use>
                                        <use stroke="#F63C5D" mask="url(#mask-2)" stroke-width="4" xlink:href="#path-1"></use>
                                    </g>
                                </g>
                            </g>
                        </g>
                    </g>
                </g>
            </g>
        </g>
    </g>
</svg>