<?xml version="1.0" encoding="UTF-8" standalone="no"?>
<svg width="506px" height="515px" viewBox="0 0 506 515" version="1.1" xmlns="http://www.w3.org/2000/svg" xmlns:xlink="http://www.w3.org/1999/xlink">
    <!-- Generator: Sketch 3.8.3 (29802) - http://www.bohemiancoding.com/sketch -->
    <title>elements</title>
    <desc>Created with Sketch.</desc>
    <defs>
        <path d="M45.6123828,184.776725 C34.2473246,179.385723 31.8532037,167.351389 40.286089,158.040453 L56.1842325,140.469099 C64.6159761,131.154656 66.1672577,114.75438 59.6374499,104.030304 L3.67046287,12.0721923 C-2.85582993,1.34697677 1.09660246,-3.02124514 12.4546307,2.37203702 L170.178382,77.214135 C181.539925,82.6062772 183.932904,94.6371045 175.502302,103.955054 L159.605391,121.518254 C151.178303,130.835064 149.619992,147.237621 156.145143,157.959329 L212.11916,249.915161 C218.641938,260.641516 214.691879,265.005091 203.331477,259.616456 L45.6123828,184.776725 L45.6123828,184.776725 L45.6123828,184.776725 L45.6123828,184.776725 Z" id="path-1"></path>
        <filter x="-50%" y="-50%" width="200%" height="200%" filterUnits="objectBoundingBox" id="filter-2">
            <feGaussianBlur stdDeviation="1.5" in="SourceAlpha" result="shadowBlurInner1"></feGaussianBlur>
            <feOffset dx="0" dy="1" in="shadowBlurInner1" result="shadowOffsetInner1"></feOffset>
            <feComposite in="shadowOffsetInner1" in2="SourceAlpha" operator="arithmetic" k2="-1" k3="1" result="shadowInnerInner1"></feComposite>
            <feColorMatrix values="0 0 0 0 0   0 0 0 0 0   0 0 0 0 0  0 0 0 0.5 0" type="matrix" in="shadowInnerInner1"></feColorMatrix>
        </filter>
    </defs>
    <g id="Logo-Meefore" stroke="none" stroke-width="1" fill="none" fill-rule="evenodd">
        <g id="Logo" transform="translate(-153.000000, -118.000000)">
            <g id="elements">
                <g transform="translate(153.000000, 125.000000)">
                    <g id="Meedrinks" transform="translate(0.000000, 101.000000)" fill="#000000">
                        <path d="M245.217125,149.60191 C246.486047,156.08847 248.383157,162.530792 250.940421,168.860244 C271.984786,220.946875 330.497719,247.476466 387.094622,233.310914 L416.02853,304.92485 L382.657231,318.40773 C373.939715,321.929835 369.738726,331.835323 373.255538,340.53974 L374.00587,342.396877 C377.521867,351.099274 387.433844,355.305104 396.143068,351.786349 L495.337101,311.709358 C504.054617,308.187253 508.255606,298.281764 504.738794,289.577347 L503.988462,287.720211 C500.472465,279.017813 490.560488,274.811984 481.851264,278.330739 L449.407149,291.439013 L420.463108,219.799998 C470.899787,190.638787 494.485516,130.983388 473.464546,78.9546613 C470.907282,72.6252099 467.796735,66.6731483 464.203578,61.1256404 L245.217125,149.60191 L245.217125,149.60191 L245.217125,149.60191 L245.217125,149.60191 Z M408.493213,1.66544857 C413.6144,-0.403645175 420.55966,1.4202742 424.000629,5.73269846 L453.559073,42.7770703 L240.306786,128.936587 L235.836168,81.7560758 C235.315376,76.2599226 239.045395,70.1268111 244.16592,68.0579845 L408.493213,1.66544857 L408.493213,1.66544857 L408.493213,1.66544857 L408.493213,1.66544857 Z" id="Meedrink-right"></path>
                        <path d="M18.5396522,123.703382 C15.5460513,129.596088 13.0747046,135.840684 11.193057,142.402769 C-4.29148933,196.403799 25.4840839,253.333561 78.8042362,277.015486 L57.5145257,351.26153 L22.9166933,341.340761 C13.878773,338.749179 4.46992025,343.968423 1.88223233,352.992764 L1.33013446,354.918158 C-1.25695307,363.940404 3.96442439,373.357065 12.9937485,375.946182 L115.833573,405.435027 C124.871493,408.026609 134.280346,402.807365 136.868034,393.783025 L137.420131,391.857631 C140.007219,382.835385 134.785842,373.418723 125.756517,370.829606 L92.1199467,361.184475 L113.417113,286.91243 C171.115193,294.985002 226.428532,262.496731 241.895864,208.555734 C243.777512,201.993649 244.990822,195.388317 245.574763,188.804653 L18.5396522,123.703382 L18.5396522,123.703382 L18.5396522,123.703382 Z M238.281745,107.650657 C243.591157,109.173106 247.94118,114.886303 247.997707,120.403012 L248.483286,167.79237 L27.3930957,104.395778 L52.9174233,64.4646407 C55.8908039,59.8129817 62.6060191,57.2764526 67.914745,58.7987052 L238.281745,107.650657 L238.281745,107.650657 L238.281745,107.650657 Z" id="Meedrink-left"></path>
                    </g>
                    <g id="thunder" transform="translate(212.000000, 161.000000) rotate(20.000000) translate(-212.000000, -161.000000) translate(104.000000, 30.000000)">
                        <g id="Shape">
                            <use fill="#0269E7" fill-rule="evenodd" xlink:href="#path-1"></use>
                            <use fill="black" fill-opacity="1" filter="url(#filter-2)" xlink:href="#path-1"></use>
                            <use stroke="#FFFFFF" stroke-width="17" xlink:href="#path-1"></use>
                        </g>
                    </g>
                </g>
            </g>
        </g>
    </g>
</svg>