<?xml version="1.0" encoding="UTF-8" standalone="no"?>
<svg width="310px" height="310px" viewBox="0 0 310 310" version="1.1" xmlns="http://www.w3.org/2000/svg" xmlns:xlink="http://www.w3.org/1999/xlink">
    <!-- Generator: Sketch 39.1 (31720) - http://www.bohemiancoding.com/sketch -->
    <title>meedrink</title>
    <desc>Created with Sketch.</desc>
    <defs>
        <linearGradient x1="71.7054504%" y1="15.1879279%" x2="24.2461792%" y2="81.4427932%" id="linearGradient-1">
            <stop stop-color="#EC085D" offset="0%"></stop>
            <stop stop-color="#FF6F5B" offset="100%"></stop>
        </linearGradient>
    </defs>
    <g id="Logo" stroke="none" stroke-width="1" fill="none" fill-rule="evenodd">
        <g id="Logo-white-bg-coloured-Copy-9">
            <rect id="bg" fill="#FFFFFF" x="0" y="0" width="310" height="310"></rect>
            <g id="meedrink" transform="translate(80.000000, 45.000000)" fill="url(#linearGradient-1)">
                <path d="M11.5041876,42.113725 C10.2376705,45.1049383 9.13797733,48.2059231 8.21964343,51.4085341 C-2.41912712,88.5103361 14.8112764,126.943722 47.4566369,143.99324 L36.5670272,181.969822 L20.7433268,177.432449 C12.4203724,175.04588 3.73607337,179.858747 1.34911359,188.183065 C-1.03837101,196.509213 3.77521241,205.190554 12.0993809,207.577471 L73.9316518,225.30759 C82.2546065,227.694158 90.9389053,222.881292 93.3258651,214.556974 C95.7133497,206.230826 90.8997663,197.549484 82.5755978,195.162568 L66.7094083,190.613011 L77.5847528,152.686177 C114.398933,155.657585 149.517432,132.171911 160.181233,94.9828186 C161.099567,91.7802077 161.810246,88.5676749 162.32128,85.3598303 L11.5041876,42.113725 L11.5041876,42.113725 L11.5041876,42.113725 Z M163.352738,73.1498699 L163.993929,49.4357501 C164.227881,40.7831757 157.670885,31.828537 149.348278,29.4420678 L52.1378172,1.56741689 C43.8141379,-0.81935976 33.5109295,3.29750632 29.1225625,10.762008 L17.0997545,31.2125017 L163.352738,73.1498699 L163.352738,73.1498699 L163.352738,73.1498699 Z" id="Shape"></path>
            </g>
        </g>
    </g>
</svg>