<?xml version="1.0" encoding="UTF-8" standalone="no"?>
<svg width="40px" height="40px" viewBox="0 0 40 40" version="1.1" xmlns="http://www.w3.org/2000/svg" xmlns:xlink="http://www.w3.org/1999/xlink">
    <!-- Generator: Sketch 39.1 (31720) - http://www.bohemiancoding.com/sketch -->
    <title>button</title>
    <desc>Created with Sketch.</desc>
    <defs></defs>
    <g id="Page-1" stroke="none" stroke-width="1" fill="none" fill-rule="evenodd">
        <g id="Web-meefore" transform="translate(-22.000000, -21.000000)">
            <g id="LP" transform="translate(-297.000000, -180.000000)">
                <g id="V2">
                    <g id="logo" transform="translate(319.000000, 201.000000)">
                        <g id="button">
                            <path d="M19.9750204,39.9500408 C31.0069195,39.9500408 39.9500408,31.0069195 39.9500408,19.9750204 C39.9500408,8.94312125 31.0069195,0 19.9750204,0 C8.94312125,0 0,8.94312125 0,19.9750204 C0,31.0069195 8.94312125,39.9500408 19.9750204,39.9500408 Z M13.4726781,12.0278244 C13.3360224,12.350573 13.2173667,12.6851657 13.1182795,13.0307238 C11.9703682,17.0339663 13.8295093,21.1808852 17.3519067,23.0205089 L16.1769302,27.1181391 L14.4695708,26.6285617 C13.5715334,26.3710536 12.6345074,26.8903565 12.3769571,27.788541 C12.1193502,28.686923 12.6387304,29.6236299 13.5368988,29.8811755 L20.2085309,31.7942352 C21.1065683,32.0517433 22.0435943,31.5324404 22.3011446,30.6342559 C22.5587515,29.735874 22.0393713,28.7991671 21.1412029,28.5416214 L19.429259,28.0507294 L20.6026964,23.958467 C24.5749048,24.2790785 28.3641511,21.7450008 29.5147632,17.7323398 C29.6138503,17.3867817 29.6905318,17.0401531 29.7456718,16.6940303 L13.4726781,12.0278244 Z M29.856965,15.3765894 L29.9261488,12.8178626 C29.9513919,11.8842596 29.2438994,10.9180643 28.3458995,10.6605669 L17.8570008,7.65292363 C16.9588852,7.39539313 15.8471807,7.83959832 15.3736809,8.64500961 L14.0764335,10.8515948 L29.856965,15.3765894 Z" id="Combined-Shape" fill="#FFFFFF"></path>
                            <g id="meedrink" transform="translate(8.678630, 6.786297)"></g>
                        </g>
                    </g>
                </g>
            </g>
        </g>
    </g>
</svg>