<?xml version="1.0" encoding="UTF-8" standalone="no"?>
<svg width="800px" height="800px" viewBox="0 0 800 800" version="1.1" xmlns="http://www.w3.org/2000/svg" xmlns:xlink="http://www.w3.org/1999/xlink">
    <!-- Generator: Sketch 39.1 (31720) - http://www.bohemiancoding.com/sketch -->
    <title>Logo-white-bg-coloured Copy</title>
    <desc>Created with Sketch.</desc>
    <defs>
        <linearGradient x1="100%" y1="0%" x2="36.9299521%" y2="76.2647134%" id="linearGradient-1">
            <stop stop-color="#EB005C" offset="0%"></stop>
            <stop stop-color="#FF705B" offset="100%"></stop>
        </linearGradient>
    </defs>
    <g id="Logo" stroke="none" stroke-width="1" fill="none" fill-rule="evenodd">
        <g id="Logo-white-bg-coloured-Copy">
            <rect id="bg" fill="url(#linearGradient-1)" x="0" y="0" width="800" height="800"></rect>
            <g id="meedrink" transform="translate(173.000000, 149.000000)" fill="#FFFFFF">
                <path d="M57.0616838,147.132319 C56.2126154,154.099286 55.775412,161.194891 55.775412,168.393559 C55.775412,251.789137 114.452035,321.352532 192.409698,337.321586 L192.409698,422.68345 L156.841975,422.68345 C138.134053,422.68345 122.963346,437.851701 122.963346,456.562687 C122.963346,475.277788 138.131325,490.441925 156.841975,490.441925 L295.825465,490.441925 C314.533387,490.441925 329.704093,475.273674 329.704093,456.562687 C329.704093,437.847587 314.536115,422.68345 295.825465,422.68345 L260.162236,422.68345 L260.162236,337.433408 C338.394034,321.679783 397.347082,251.985344 397.347082,168.393559 C397.347082,161.194891 396.909879,154.099286 396.06081,147.132319 L57.0616838,147.132319 L57.0616838,147.132319 Z M390.931322,121.158237 L378.139807,71.5227313 C373.472565,53.4122168 354.520796,38.7187598 335.813655,38.7187598 L117.308839,38.7187598 C98.5992881,38.7187598 79.6516341,53.4055981 74.9826864,71.5227313 L62.1911715,121.158237 L390.931322,121.158237 L390.931322,121.158237 Z" id="Shape" transform="translate(226.561247, 264.580342) rotate(16.000000) translate(-226.561247, -264.580342) "></path>
            </g>
        </g>
    </g>
</svg>