<?xml version="1.0" encoding="UTF-8" standalone="no"?>
<svg width="800px" height="800px" viewBox="0 0 800 800" version="1.1" xmlns="http://www.w3.org/2000/svg" xmlns:xlink="http://www.w3.org/1999/xlink">
    <!-- Generator: Sketch 39.1 (31720) - http://www.bohemiancoding.com/sketch -->
    <title>Logo-white-bg-coloured Copy 3</title>
    <desc>Created with Sketch.</desc>
    <defs>
        <linearGradient x1="17.8824844%" y1="86.7466952%" x2="79.3011275%" y2="12.6360809%" id="linearGradient-1">
            <stop stop-color="#F53234" offset="0%"></stop>
            <stop stop-color="#E90A59" offset="100%"></stop>
        </linearGradient>
    </defs>
    <g id="Logo" stroke="none" stroke-width="1" fill="none" fill-rule="evenodd">
        <g id="Logo-white-bg-coloured-Copy-3">
            <g id="button" transform="translate(94.000000, 94.000000)">
                <circle id="btn" fill="url(#linearGradient-1)" cx="306.117188" cy="306.117188" r="306.117188"></circle>
                <g id="meedrink" transform="translate(133.000000, 104.000000)" fill="#FFFFFF">
                    <path d="M43.6689054,112.59933 C43.0191193,117.9311 42.6845307,123.361316 42.6845307,128.870407 C42.6845307,192.692456 87.5893376,245.928833 147.249789,258.149838 L147.249789,323.476672 L120.03006,323.476672 C105.71302,323.476672 94.1029841,335.084828 94.1029841,349.404214 C94.1029841,363.726749 105.710932,375.331757 120.03006,375.331757 L226.393148,375.331757 C240.710189,375.331757 252.320225,363.723601 252.320225,349.404214 C252.320225,335.08168 240.712277,323.476672 226.393148,323.476672 L199.10033,323.476672 L199.10033,258.235414 C258.970575,246.179276 304.086928,192.842612 304.086928,128.870407 C304.086928,123.361316 303.752339,117.9311 303.102553,112.59933 L43.6689054,112.59933 L43.6689054,112.59933 Z M299.176992,92.7215472 L289.387736,54.7358434 C285.815928,40.875994 271.312272,29.6311946 256.995829,29.6311946 L89.7756295,29.6311946 C75.4573419,29.6311946 60.9568355,40.8709287 57.3837227,54.7358434 L47.5944662,92.7215472 L299.176992,92.7215472 L299.176992,92.7215472 Z" id="Shape" transform="translate(173.385729, 202.481476) rotate(16.000000) translate(-173.385729, -202.481476) "></path>
                </g>
            </g>
        </g>
    </g>
</svg>